<?xml version="1.0" encoding="UTF-8"?>
<svg version="1.1" xmlns="http://www.w3.org/2000/svg" width="500" height="500">
<path d="M0 0 C1.19700234 -0.00128164 1.19700234 -0.00128164 2.41818655 -0.00258917 C5.10680623 -0.00424347 7.79536428 0.00127661 10.48397827 0.00672913 C12.4054311 0.00701103 14.32688403 0.00685319 16.24833679 0.00628662 C21.47739981 0.00599879 26.70644005 0.01189323 31.93549776 0.01886058 C37.39545356 0.02509648 42.85540984 0.0256981 48.31536865 0.02688599 C58.66031115 0.0299986 69.00524313 0.03821106 79.35018098 0.04823548 C91.12509261 0.05939877 102.90000472 0.06490761 114.67492032 0.06993091 C138.90213168 0.08039372 163.12933368 0.09799183 187.35653687 0.12025452 C187.38180291 7.79236654 187.3993681 15.46446791 187.41146851 23.13661194 C187.41651063 25.7489207 187.42334412 28.36122663 187.43197632 30.973526 C187.44404722 34.7190572 187.44976622 38.46455123 187.45419312 42.21009827 C187.4593544 43.38612106 187.46451569 44.56214386 187.46983337 45.77380371 C187.46990891 46.85484879 187.46998444 47.93589386 187.47006226 49.04969788 C187.47228287 50.00678146 187.47450348 50.96386505 187.47679138 51.94995117 C187.35653687 54.12025452 187.35653687 54.12025452 186.35653687 55.12025452 C184.48358903 55.21678048 182.60695442 55.24212718 180.73152161 55.24050903 C178.8993811 55.24257103 178.8993811 55.24257103 177.03022766 55.24467468 C175.6643064 55.24113508 174.29838538 55.23750026 172.9324646 55.23377991 C171.50376385 55.23349804 170.07506296 55.23365576 168.6463623 55.23422241 C164.75603715 55.23451041 160.86574256 55.22861339 156.97542453 55.22164845 C152.91415482 55.21541522 148.85288448 55.21481114 144.79161072 55.21362305 C137.09574754 55.21050964 129.39989849 55.20229613 121.70404154 55.19227356 C112.94481573 55.18111271 104.18558925 55.17560204 95.4263581 55.17057812 C77.40307633 55.16011352 59.37980773 55.1425139 41.35653687 55.12025452 C41.36813843 55.91689514 41.37973999 56.71353577 41.39169312 57.53431702 C41.40071655 58.59392639 41.40973999 59.65353577 41.41903687 60.74525452 C41.43063843 61.78939514 41.44223999 62.83353577 41.45419312 63.90931702 C41.35653687 67.12025452 41.35653687 67.12025452 40.35653687 73.12025452 C88.53653687 73.12025452 136.71653687 73.12025452 186.35653687 73.12025452 C186.35653687 201.16025452 186.35653687 329.20025452 186.35653687 461.12025452 C184.70653687 461.45025452 183.05653687 461.78025452 181.35653687 462.12025452 C179.0640564 460.52479553 179.0640564 460.52479553 176.73934937 458.12416077 C175.88470093 457.25468811 175.03005249 456.38521545 174.14950562 455.48939514 C173.26907593 454.56320374 172.38864624 453.63701233 171.48153687 452.68275452 C170.60884155 451.7913678 169.73614624 450.89998108 168.83700562 449.98158264 C164.38843636 445.4092562 160.09993498 440.73507919 155.93417358 435.90516663 C153.52964574 433.18472356 150.95731657 430.65149466 148.35653687 428.12025452 C145.18141846 425.03003233 142.1372535 421.90116578 139.25888062 418.53041077 C134.62613588 413.17749753 129.5990914 408.21325342 124.58676147 403.22010803 C122.92227409 401.56098132 121.2632024 399.896574 119.60458374 398.23158264 C114.02653369 392.64998906 108.36621026 387.23915399 102.35653687 382.12025452 C99.56494662 379.59881816 96.79045154 377.05971418 94.01669312 374.51869202 C91.81570225 372.53424504 89.57536552 370.63483987 87.29403687 368.74525452 C71.01684596 354.49855164 59.36894929 333.75706458 57.35653687 312.12025452 C56.87896136 302.25036069 56.92468891 292.31865835 57.86532593 282.4801178 C58.37941768 276.45954821 58.46891136 270.5069412 58.41903687 264.46791077 C58.4104312 262.17274528 58.40197485 259.87757923 58.39364624 257.58241272 C58.38744263 256.37815643 58.38123901 255.17390015 58.37484741 253.93315125 C58.34308654 247.42783577 58.33017306 240.92251604 58.32528687 234.41712952 C58.32473801 233.73350153 58.32418915 233.04987354 58.32362366 232.34552956 C58.31597034 214.53917333 58.57879337 196.73657216 58.85653687 178.93275452 C58.8685614 178.15736958 58.88058594 177.38198463 58.89297485 176.58310318 C59.04035852 167.09535681 59.1971299 157.60781562 59.35653687 148.12025452 C77.50653687 148.12025452 95.65653687 148.12025452 114.35653687 148.12025452 C114.36588257 152.90952454 114.37522827 157.69879456 114.38485718 162.63319397 C114.41864291 178.46705718 114.47400076 194.30079088 114.54043961 210.13454914 C114.58019109 219.73338399 114.61260332 229.33213733 114.62753296 238.93104553 C114.64056967 247.3007934 114.66758577 255.67036159 114.71114993 264.04000825 C114.73371942 268.46868378 114.74945026 272.89713809 114.74842072 277.32587624 C114.74767142 281.50140205 114.76572936 285.67643966 114.7977047 289.85183907 C114.80616589 291.37751282 114.80797953 292.90324158 114.80233955 294.42892838 C114.76613815 305.73504021 115.78056506 315.85109744 123.59872437 324.58509827 C125.99139418 326.67469657 128.71338011 328.35815001 131.35653687 330.12025452 C131.85153687 230.13025452 131.85153687 230.13025452 132.35653687 128.12025452 C83.84653687 128.12025452 35.33653687 128.12025452 -14.64346313 128.12025452 C-14.74658813 108.27900452 -14.84971313 88.43775452 -14.95596313 67.99525452 C-15.00148315 61.73282776 -15.04700317 55.470401 -15.09390259 49.01820374 C-15.1164856 41.36463928 -15.1164856 41.36463928 -15.12068176 37.78044128 C-15.12835431 35.27982638 -15.14592878 32.77922985 -15.17134094 30.2787323 C-15.20793191 26.48843808 -15.2129936 22.69927308 -15.21109009 18.90882874 C-15.22908063 17.79684553 -15.24707117 16.68486233 -15.26560688 15.53918266 C-15.20912856 7.14023045 -15.20912856 7.14023045 -12.23298645 3.44596863 C-8.15571927 -0.21592457 -5.26125631 -0.02035465 0 0 Z " fill="#020202" transform="translate(49.643463134765625,18.879745483398438)"/>
<path d="M0 0 C25.17357168 -0.135437 50.34684841 -0.24596489 75.52069187 -0.31087303 C87.20932114 -0.34181195 98.89770798 -0.38399349 110.58618164 -0.45263672 C120.77378515 -0.51243723 130.96121309 -0.55114888 141.14898723 -0.56453097 C146.54350609 -0.57235356 151.93752268 -0.59073961 157.33188057 -0.63438034 C162.41022937 -0.67513135 167.48786942 -0.68766387 172.5663662 -0.67864609 C174.42919391 -0.6802956 176.29204552 -0.69221573 178.15473175 -0.71523285 C180.70176376 -0.74516033 183.24613245 -0.73788637 185.79322815 -0.7215271 C186.52768223 -0.73900415 187.26213631 -0.7564812 188.01884657 -0.77448785 C193.19940509 -0.68475751 196.05865805 0.88057549 199.67384201 4.35944521 C201.56909267 6.70400942 201.86340317 8.35698963 201.84178162 11.3531189 C201.85142409 12.38576056 201.86106657 13.41840221 201.87100124 14.48233604 C201.84581449 15.60368761 201.82062773 16.72503918 201.79467773 17.88037109 C201.79552148 19.09038095 201.79636522 20.30039082 201.79723454 21.54706764 C201.79201718 25.45677993 201.73875366 29.36414425 201.68359375 33.2734375 C201.67329928 35.68984859 201.66615955 38.10627525 201.66223145 40.52270508 C201.62555977 49.4737084 201.52783074 58.42437736 201.4375 67.375 C201.293125 87.38125 201.14875 107.3875 201 128 C152.49 128 103.98 128 54 128 C54.33 194.66 54.66 261.32 55 330 C64.31547524 322.75463037 68.25685049 318.8839247 71 308 C71.30508689 304.61073006 71.30508689 304.61073006 71.2784729 301.08399963 C71.2842653 300.42465028 71.2900577 299.76530093 71.29602563 299.0859713 C71.3129086 296.8965374 71.3158919 294.70731578 71.31884766 292.51782227 C71.32815394 290.94044993 71.33832365 289.3630825 71.34928894 287.78572083 C71.37652407 283.51768677 71.39171907 279.24968561 71.40471697 274.98158765 C71.42037595 270.5159207 71.44715733 266.05032063 71.4727478 261.58470154 C71.51948664 253.13471007 71.55625442 244.68470596 71.58942068 236.23465151 C71.62767668 226.6118981 71.67707772 216.98921194 71.72740483 207.36651528 C71.8306519 187.57772038 71.91846464 167.78889709 72 148 C90.15 148 108.3 148 127 148 C127.17151239 159.37494666 127.33934887 170.74990102 127.5 182.125 C127.51202454 182.97133625 127.52404907 183.8176725 127.53643799 184.6896553 C127.89449868 209.97727828 128.10908118 235.25491948 127.96289062 260.54541016 C127.89857206 273.51289807 127.89857206 273.51289807 128.75537109 286.4465332 C130.5590157 305.2731988 129.15023172 324.16049792 120 341 C119.50886719 341.96035156 119.01773438 342.92070312 118.51171875 343.91015625 C114.10979601 352.05213745 108.43685967 358.46885039 102 365 C101.49210937 365.52158691 100.98421875 366.04317383 100.4609375 366.58056641 C95.19524342 371.98352576 89.85140301 377.24582121 84.125 382.1640625 C74.37099422 390.59123661 65.24430931 399.65067215 56.125 408.75 C55.57925323 409.29315857 55.03350647 409.83631714 54.47122192 410.39593506 C48.98252592 415.86412202 43.57546363 421.34922432 38.53857422 427.24316406 C36.00198338 430.13959498 33.25241343 432.81067914 30.5 435.5 C27.02774022 438.92904681 23.59986291 442.34070188 20.4375 446.0625 C17.34667757 449.65683987 14.15040765 453.13643053 10.875 456.5625 C10.37154053 457.11236572 9.86808105 457.66223145 9.34936523 458.22875977 C7.8671875 459.75390625 7.8671875 459.75390625 5 462 C3.35 461.67 1.7 461.34 0 461 C0 332.96 0 204.92 0 73 C48.18 73 96.36 73 146 73 C145.67 71.35 145.34 69.7 145 68 C145 63.71 145 59.42 145 55 C97.15 55 49.3 55 0 55 C0 36.85 0 18.7 0 0 Z " fill="#020202" transform="translate(264,19)"/>
</svg>
