<?xml version="1.0" encoding="UTF-8"?>
<svg version="1.1" xmlns="http://www.w3.org/2000/svg" width="500" height="500">
<path d="M0 0 C25.06045429 -0.09027291 50.12077707 -0.16396612 75.18135262 -0.20724869 C86.81724999 -0.22787915 98.45303922 -0.25600912 110.08886719 -0.30175781 C120.22994841 -0.34161061 130.37095132 -0.36742929 140.51210868 -0.37635398 C145.88243992 -0.38157133 151.25254709 -0.39384429 156.62280655 -0.42292023 C161.6772463 -0.45006459 166.73136961 -0.45844691 171.78587532 -0.45243073 C173.64103858 -0.45353139 175.4962124 -0.46149106 177.35131264 -0.4768219 C179.88507914 -0.49673469 182.4176522 -0.49193483 184.95144653 -0.48101807 C185.68492251 -0.49266943 186.41839848 -0.5043208 187.174101 -0.51632524 C192.23549057 -0.45741346 195.14993623 0.74027103 199 4 C201.09577936 6.98225187 201.24803235 9.44053788 201.24050903 13.03668213 C201.24464152 14.55632254 201.24464152 14.55632254 201.2488575 16.10666275 C201.23806317 17.77137934 201.23806317 17.77137934 201.22705078 19.46972656 C201.22729185 20.65967098 201.22753292 21.8496154 201.2277813 23.07561874 C201.22628751 26.93069666 201.21105146 30.78558164 201.1953125 34.640625 C201.19237228 37.01936754 201.19033171 39.39811137 201.18920898 41.77685547 C201.17871927 50.6012567 201.15079691 59.42563024 201.125 68.25 C201.08375 87.9675 201.0425 107.685 201 128 C152.49 128 103.98 128 54 128 C54.33 194.99 54.66 261.98 55 331 C65.61624006 322.05847751 65.61624006 322.05847751 71 310 C71.10133956 307.79130634 71.14623936 305.57982027 71.15821838 303.36883545 C71.16315636 302.70388227 71.16809434 302.03892909 71.17318195 301.35382581 C71.18853019 299.12748791 71.19691029 296.90117879 71.20532227 294.67480469 C71.21490289 293.07817329 71.22491309 291.48154443 71.23532104 289.88491821 C71.26235615 285.55059873 71.28337328 281.21626838 71.30332303 276.88191128 C71.32519116 272.35218258 71.35257581 267.82248734 71.37937927 263.29278564 C71.42929495 254.71518989 71.47423797 246.13757554 71.51740164 237.55994344 C71.56678361 227.79459722 71.62169819 218.02928459 71.67708123 208.26397085 C71.79088402 188.17601035 71.89699641 168.08801898 72 148 C90.15 148 108.3 148 127 148 C126.97679687 155.52296875 126.95359375 163.0459375 126.9296875 170.796875 C126.91943373 175.64583692 126.9098035 180.49478492 126.90234375 185.34375 C126.89052118 192.99156571 126.87674837 200.63933228 126.84912109 208.28710938 C126.75673139 234.53281131 126.73846387 260.67686414 128.56689453 286.86816406 C130.45796905 314.65731215 124.72238987 339.02205137 106.40527344 360.40869141 C101.08621413 366.43190693 95.26861478 371.88345766 89.17578125 377.109375 C85.44600151 380.35033262 81.82680097 383.7124392 78.1953125 387.0625 C76.09985412 388.99519189 73.99046182 390.91042768 71.8671875 392.8125 C65.15073383 398.86405069 58.87827123 405.20686063 52.74487305 411.84838867 C47.69767457 417.30300768 42.4950579 422.57691301 37.18603516 427.77661133 C34.18811662 430.73141543 31.32178825 433.73554561 28.57421875 436.92578125 C24.85972486 441.22944926 20.86843497 445.20773282 16.8125 449.1875 C10.58017409 455.29718207 10.58017409 455.29718207 5 462 C1.125 461.125 1.125 461.125 0 460 C-0.09789125 457.94626577 -0.12371215 455.88909554 -0.12304783 453.83302975 C-0.12420167 453.17847529 -0.12535552 452.52392083 -0.12654433 451.84953138 C-0.12921735 449.62890578 -0.12468325 447.40835089 -0.12025452 445.18772888 C-0.12069008 443.59056791 -0.12156471 441.99340701 -0.12284368 440.39624649 C-0.12509159 435.98608774 -0.12106334 431.57595304 -0.11606562 427.16579735 C-0.11176553 422.41798597 -0.11320723 417.67017606 -0.1139679 412.92236328 C-0.11449341 404.68938816 -0.11134373 396.45642093 -0.10573006 388.2234478 C-0.09761879 376.31980556 -0.09500022 364.41616717 -0.09374207 352.51252247 C-0.09155096 333.2017869 -0.08488928 313.89105554 -0.07543945 294.58032227 C-0.06626685 275.81665061 -0.05918528 257.05298009 -0.05493164 238.28930664 C-0.05466892 237.13360208 -0.05440619 235.97789751 -0.05413551 234.78717159 C-0.05283051 228.98960666 -0.0515668 223.19204172 -0.05032361 217.39447677 C-0.03994916 169.26298077 -0.02150988 121.13149256 0 73 C48.18 73 96.36 73 146 73 C145.67 67.06 145.34 61.12 145 55 C97.15 55 49.3 55 0 55 C0 36.85 0 18.7 0 0 Z " fill="#FDFDFD" transform="translate(264,19)"/>
<path d="M0 0 C0.79410658 -0.00427212 1.58821316 -0.00854425 2.40638357 -0.01294583 C5.05239543 -0.02114503 7.69680223 0.00625674 10.34266663 0.03364563 C12.24515241 0.03505677 14.14764092 0.03426283 16.05012512 0.03143311 C21.20474443 0.03000013 26.3587805 0.05937102 31.51326442 0.09430289 C36.90376109 0.12558596 42.29427153 0.12849868 47.68484497 0.13442993 C57.88808081 0.1499626 68.09104837 0.19098342 78.29416615 0.24117738 C89.91196553 0.29708865 101.5297778 0.32456186 113.14767826 0.34965456 C137.04236578 0.40189972 160.9366856 0.49358445 184.83119202 0.60127258 C184.83119202 18.75127258 184.83119202 36.90127258 184.83119202 55.60127258 C136.98119202 55.60127258 89.13119202 55.60127258 39.83119202 55.60127258 C39.50119202 61.54127258 39.17119202 67.48127258 38.83119202 73.60127258 C87.01119202 73.60127258 135.19119202 73.60127258 184.83119202 73.60127258 C184.87524679 122.86874338 184.91218897 172.13619568 184.93332268 221.40368053 C184.93582422 227.21433625 184.93841285 233.02499192 184.9410553 238.83564758 C184.94157992 239.99249088 184.94210454 241.14933417 184.94264506 242.34123333 C184.95135814 261.09604867 184.96713306 279.8508518 184.98549761 298.60565989 C185.00417158 317.83621981 185.01530343 337.06677332 185.01936901 356.29734194 C185.02211927 368.17270142 185.03081942 380.0480264 185.04702495 391.92337526 C185.05756098 400.05624706 185.06080035 408.1891009 185.05819477 416.32197903 C185.05690818 421.02086878 185.05894107 425.71969807 185.06960297 430.41857719 C185.07927913 434.71416254 185.07986395 439.00964632 185.07298981 443.30523618 C185.07213923 444.8651558 185.07472389 446.42508157 185.08095838 447.98498897 C185.08890172 450.09387106 185.08470961 452.20237904 185.07728767 454.3112545 C185.07804711 455.4861092 185.07880656 456.6609639 185.07958901 457.87142026 C184.83119202 460.60127258 184.83119202 460.60127258 182.83119202 462.60127258 C179.40052441 462.28618459 177.83599057 460.92485618 175.58119202 458.42549133 C174.67723694 457.43935852 174.67723694 457.43935852 173.75502014 456.43330383 C173.12015686 455.72560852 172.48529358 455.01791321 171.83119202 454.28877258 C170.48915881 452.82235581 169.14538817 451.35752733 167.79994202 449.89424133 C167.13220764 449.16640442 166.46447327 448.4385675 165.77650452 447.68867493 C162.17269396 443.82163423 158.39266003 440.13833904 154.61244202 436.44502258 C152.54590829 434.33204989 150.62539638 432.22153399 148.71009827 429.98017883 C143.85997996 424.3788014 138.53927083 419.23904353 133.26869202 414.03877258 C127.2199676 408.07045533 121.30178541 402.11469785 115.83119202 395.60127258 C114.04616976 393.95783567 112.21535857 392.3872407 110.36634827 390.81611633 C106.94384574 387.82604093 103.64305163 384.71286888 100.33119202 381.60127258 C96.42448221 377.9339246 92.52485625 374.27736622 88.45619202 370.78877258 C70.66612383 355.26080358 58.08906406 335.16428269 55.95228577 311.13642883 C55.59355246 303.6261735 55.54177236 296.17260313 56.32666016 288.69567871 C56.93299376 282.14491413 57.00532764 275.62693594 57.03651428 269.05171204 C57.04641388 267.74312729 57.05631348 266.43454254 57.06651306 265.08630371 C57.09328854 261.53336819 57.11444418 257.98041975 57.13451505 254.42744088 C57.15654566 250.7011971 57.18384993 246.97499186 57.21057129 243.2487793 C57.26026935 236.20847252 57.30529201 229.1681441 57.34859365 222.1277954 C57.39816302 214.10590205 57.45300739 206.08404741 57.50827324 198.06219161 C57.62174146 181.57525315 57.72795944 165.08827879 57.83119202 148.60127258 C75.98119202 148.60127258 94.13119202 148.60127258 112.83119202 148.60127258 C112.82071838 153.20354797 112.81024475 157.80582336 112.79945374 162.54756165 C112.76628191 177.7706472 112.74410748 192.99373419 112.72756767 208.21684647 C112.71727434 217.44461668 112.70325132 226.67235255 112.68031311 235.90010071 C112.66031957 243.94711257 112.64746147 251.99409954 112.64301503 260.04113555 C112.64041772 264.29823499 112.63435377 268.55526325 112.6197319 272.81233978 C112.60605355 276.8276388 112.60198988 280.84283801 112.60497665 284.85815811 C112.60443104 286.32377542 112.60051512 287.78939643 112.59278107 289.25499344 C112.51919897 303.93133735 112.91755547 315.62571022 123.45619202 326.47627258 C125.52904948 328.49285337 127.39930137 329.98001215 129.83119202 331.60127258 C130.16119202 264.61127258 130.49119202 197.62127258 130.83119202 128.60127258 C82.65119202 128.60127258 34.47119202 128.60127258 -15.16880798 128.60127258 C-15.31318298 108.40939758 -15.45755798 88.21752258 -15.60630798 67.41377258 C-15.67003601 61.03782776 -15.73376404 54.66188293 -15.79942322 48.09272766 C-15.83103943 40.30769348 -15.83103943 40.30769348 -15.83691406 36.66333008 C-15.85049117 33.44822995 -15.88996664 30.23446234 -15.93752426 27.0197199 C-15.97491131 23.8331529 -15.96569001 20.64666323 -15.96348572 17.45991516 C-15.98867248 16.32559712 -16.01385923 15.19127909 -16.03980923 14.02258778 C-16.03016675 12.98292708 -16.02052427 11.94326639 -16.0105896 10.87210083 C-16.01704215 9.9696655 -16.0234947 9.06723017 -16.03014278 8.13744831 C-14.87648631 4.74053977 -13.17226154 3.4823044 -10.19986671 1.56931096 C-6.86766678 -0.01887424 -3.60926796 -0.07195289 0 0 Z " fill="#FDFDFD" transform="translate(51.16880798339844,18.398727416992188)"/>
</svg>
